<svg width="116" height="49" viewBox="0 0 116 49" fill="none" xmlns="http://www.w3.org/2000/svg">
<path d="M1.37012 30.1387C2.09813 30.1542 2.68156 30.7481 2.68164 31.4785C2.68164 31.9486 2.43932 32.3624 2.07324 32.6016C3.18868 35.8611 4.97893 38.849 7.36621 41.3731C9.56504 43.6979 12.1358 45.4859 14.9365 46.6758C15.183 46.3736 15.5584 46.1797 15.9785 46.1797C16.7186 46.18 17.3193 46.7804 17.3193 47.5205V47.5274C17.3185 47.7566 17.2596 47.9719 17.1572 48.1602C16.9304 48.5785 16.4877 48.8621 15.9785 48.8623C15.2382 48.8623 14.6377 48.2617 14.6377 47.5205C14.6377 47.4329 14.6457 47.3474 14.6621 47.2647C11.8006 46.0428 9.17498 44.2118 6.92774 41.8359C4.47168 39.2398 2.63206 36.1662 1.48633 32.8125C1.43809 32.8174 1.38988 32.8203 1.34082 32.8203C0.600477 32.8203 2.13584e-06 32.2189 2.13584e-06 31.4785C6.06254e-05 30.9454 0.31149 30.4857 0.762697 30.2695C0.937137 30.1852 1.13362 30.1377 1.34082 30.1377C1.35058 30.1377 1.36036 30.1379 1.37012 30.1387ZM45.4248 30.1387C45.6417 30.1444 45.8461 30.2013 46.0254 30.2979C46.4447 30.5255 46.7304 30.9684 46.7305 31.4785C46.7305 32.2189 46.1298 32.8203 45.3887 32.8203C45.3608 32.8203 45.3337 32.819 45.3066 32.8174C44.1609 36.1694 42.3216 39.2415 39.8672 41.8359C37.6216 44.2101 34.9987 46.04 32.1406 47.2627C32.157 47.3462 32.165 47.4321 32.165 47.5205C32.165 48.2617 31.5644 48.8623 30.8232 48.8623C30.3139 48.8622 29.8705 48.5775 29.6445 48.1582C29.5422 47.9699 29.4832 47.7547 29.4824 47.5254V47.5205C29.4825 46.7803 30.083 46.1798 30.8232 46.1797C31.2433 46.1797 31.6176 46.3725 31.8633 46.6738C34.6623 45.484 37.2315 43.6962 39.4287 41.3731C41.8078 38.858 43.5937 35.8812 44.71 32.6348C44.3136 32.4022 44.0479 31.9707 44.0479 31.4785C44.0479 30.7383 44.6484 30.1377 45.3887 30.1377C45.401 30.1377 45.4133 30.1379 45.4248 30.1387ZM15.9785 46.835C15.841 46.835 15.7118 46.8757 15.6045 46.9453C15.417 47.0682 15.293 47.2798 15.293 47.5205V47.5234C15.2946 47.9002 15.601 48.207 15.9785 48.207C16.1904 48.2069 16.3807 48.1102 16.5059 47.958C16.6049 47.8393 16.6641 47.6867 16.6641 47.5205C16.6641 47.4485 16.6532 47.3789 16.6328 47.3135C16.5444 47.0368 16.2846 46.8352 15.9785 46.835ZM30.8232 46.835C30.518 46.835 30.2594 47.0348 30.1709 47.3106C30.1496 47.3769 30.1377 47.4476 30.1377 47.5205C30.1377 47.6858 30.1966 47.8374 30.2939 47.9561C30.42 48.1092 30.6104 48.207 30.8232 48.207C31.2016 48.207 31.5098 47.8989 31.5098 47.5205C31.5097 47.2791 31.3843 47.0674 31.1953 46.9453C31.0888 46.8757 30.96 46.835 30.8232 46.835ZM23.3428 2.3545C24.4646 2.3545 25.3904 3.19211 25.5273 4.2754C27.9531 4.53666 30.2831 5.24512 32.4238 6.36134C32.6687 6.08065 33.0298 5.90437 33.4316 5.90431C34.1718 5.90431 34.7722 6.504 34.7725 7.24415C34.7725 7.41768 34.7393 7.58407 34.6787 7.73634C35.6598 8.42918 36.5867 9.21794 37.4482 10.0967C38.3301 10.9958 39.1193 11.9632 39.8096 12.9893C39.9691 12.9304 40.1423 12.8984 40.3223 12.8984C41.1385 12.8987 41.7988 13.5597 41.7988 14.376C41.7988 14.8371 41.5887 15.2483 41.2578 15.5186C42.2831 17.651 42.9313 19.962 43.168 22.3623H43.1865C44.4025 22.3623 45.3884 23.3485 45.3887 24.5645C45.3887 25.7806 44.4027 26.7676 43.1865 26.7676C43.1702 26.7676 43.154 26.7674 43.1377 26.7666C42.8789 29.0728 42.2382 31.2929 41.248 33.3477C41.5952 33.6179 41.8184 34.0395 41.8184 34.5137C41.8184 35.3293 41.1573 35.9911 40.3408 35.9912C40.1459 35.9912 39.9594 35.9536 39.7891 35.8848C39.1037 36.9001 38.3219 37.8591 37.4482 38.75C36.599 39.6165 35.6853 40.3945 34.7197 41.0791C34.7762 41.2273 34.8076 41.3889 34.8076 41.5576C34.8076 42.298 34.207 42.8984 33.4658 42.8984C33.0729 42.8983 32.7192 42.7282 32.4736 42.458C30.3199 43.5881 27.9729 44.3056 25.5293 44.5693C25.3958 45.6578 24.4713 46.502 23.3428 46.502C22.2144 46.5018 21.2849 45.6525 21.1563 44.5586C18.7436 44.2834 16.4265 43.5666 14.2988 42.4463C14.0531 42.7238 13.6946 42.8984 13.2959 42.8984C12.5556 42.8984 11.9551 42.2979 11.9551 41.5576C11.9551 41.3824 11.9894 41.2156 12.0508 41.0625C11.0942 40.3811 10.1884 39.6091 9.34571 38.75C8.47034 37.8566 7.68607 36.8947 6.99903 35.876C6.82308 35.9496 6.62986 35.9912 6.42774 35.9912C5.61205 35.9912 4.9502 35.3294 4.9502 34.5137C4.9502 34.0315 5.18142 33.6033 5.53906 33.333C4.55303 31.2823 3.9152 29.0679 3.65723 26.7666C3.63932 26.7674 3.62143 26.7676 3.60352 26.7676C2.38653 26.7676 1.40039 25.7806 1.40039 24.5645C1.40062 23.3485 2.38668 22.3623 3.60352 22.3623C3.61159 22.3623 3.6189 22.3625 3.62696 22.3633C3.86365 19.954 4.51598 17.6352 5.54785 15.4961C5.23261 15.2258 5.03223 14.8247 5.03223 14.376C5.03231 13.5597 5.69333 12.8987 6.50879 12.8984C6.67735 12.8984 6.84063 12.9272 6.99121 12.9795C7.68067 11.9576 8.46714 10.9925 9.34571 10.0967C10.2301 9.19508 11.1827 8.38854 12.1924 7.68263C12.1441 7.54592 12.1191 7.39803 12.1191 7.24415C12.1194 6.504 12.7198 5.90431 13.46 5.90431C13.8447 5.90437 14.1925 6.06609 14.4365 6.32716C16.5265 5.24776 18.7963 4.55574 21.1582 4.28712C21.2901 3.19807 22.221 2.35462 23.3428 2.3545ZM23.3428 42.752C22.6017 42.7521 21.9799 43.275 21.8301 43.9727C21.808 44.0775 21.7959 44.1875 21.7959 44.2988C21.7959 44.4102 21.8072 44.5191 21.8301 44.6231C21.9791 45.3216 22.6034 45.8466 23.3428 45.8467C24.0823 45.8467 24.7022 45.3254 24.8545 44.6309C24.8782 44.5237 24.8906 44.4076 24.8906 44.2988C24.8906 44.1899 24.8797 44.0838 24.8584 43.9815C24.7117 43.2797 24.0839 42.752 23.3428 42.752ZM25.5147 4.92579C25.3394 5.9667 24.4287 6.75977 23.3428 6.75977C22.2569 6.75966 21.3542 5.97259 21.1748 4.93751C18.8892 5.20611 16.7244 5.88242 14.7549 6.89454C14.7852 7.00579 14.8007 7.1231 14.8008 7.24415C14.8008 7.98524 14.2002 8.58583 13.46 8.58595C13.1062 8.58595 12.785 8.44901 12.5459 8.22462C10.5853 9.59311 8.88544 11.3216 7.53906 13.3174C7.81502 13.5852 7.98629 13.9608 7.98633 14.376C7.98633 15.1917 7.32448 15.8525 6.50879 15.8525C6.37216 15.8525 6.23944 15.834 6.11426 15.7988C5.13074 17.8445 4.48681 20.091 4.25586 22.4609C5.15391 22.7395 5.80548 23.5861 5.80567 24.5645C5.80567 25.5431 5.16702 26.3743 4.28418 26.6602C4.53809 28.9367 5.17342 31.0954 6.125 33.0674C6.22246 33.0469 6.32373 33.0361 6.42774 33.0361C7.24322 33.0364 7.9043 33.6981 7.9043 34.5137C7.9043 34.8945 7.76091 35.2428 7.52344 35.5049C8.84517 37.4702 10.5089 39.1769 12.4268 40.5371C12.6602 40.3365 12.9642 40.2158 13.2959 40.2158C14.0362 40.2158 14.6377 40.8165 14.6377 41.5576C14.6377 41.6656 14.6241 41.7703 14.5996 41.8701C16.6109 42.9266 18.8295 43.633 21.1758 43.9082C21.36 42.878 22.2553 42.0968 23.3428 42.0967C24.4304 42.0967 25.3342 42.8839 25.5127 43.9199C27.8876 43.6554 30.1318 42.9496 32.166 41.8858C32.1398 41.781 32.126 41.6706 32.126 41.5576C32.126 40.8166 32.7257 40.2161 33.4658 40.2158C33.8049 40.2158 34.1147 40.3418 34.3506 40.5498C36.271 39.1912 37.9373 37.4853 39.2607 35.5215C39.0151 35.2578 38.8643 34.9027 38.8643 34.5137C38.8643 33.698 39.5251 33.0361 40.3408 33.0361C40.4528 33.0362 40.5623 33.0488 40.667 33.0733C41.6195 31.1004 42.2569 28.9405 42.5107 26.6621C41.6247 26.3771 40.9834 25.5553 40.9834 24.5645C40.9836 23.5737 41.6393 22.7349 42.54 22.459C42.3091 20.0931 41.6657 17.85 40.6846 15.8076C40.5692 15.8371 40.4474 15.8525 40.3223 15.8525C39.5066 15.8525 38.8457 15.1917 38.8457 14.376C38.8457 13.9707 39.0077 13.6058 39.2705 13.3389C37.934 11.3529 36.2479 9.63053 34.3037 8.26368C34.0687 8.46497 33.7648 8.58595 33.4316 8.58595C32.6906 8.58583 32.0908 7.98524 32.0908 7.24415C32.0909 7.13956 32.1031 7.03753 32.126 6.93946C30.1031 5.88709 27.8725 5.18868 25.5147 4.92579ZM13.2959 40.8711C13.1937 40.8711 13.0973 40.8937 13.0098 40.9346C12.805 41.0288 12.6544 41.2222 12.6191 41.4531C12.6134 41.4866 12.6104 41.5217 12.6104 41.5576C12.6104 41.936 12.9176 42.2432 13.2959 42.2432C13.4448 42.2432 13.5822 42.1954 13.6943 42.1152C13.868 41.9908 13.9824 41.7869 13.9824 41.5576C13.9824 41.5486 13.9823 41.5393 13.9814 41.5303C13.9674 41.1643 13.6652 40.8711 13.2959 40.8711ZM33.4658 40.8711C33.0909 40.8713 32.7853 41.1757 32.7813 41.5498V41.5576C32.7813 41.7934 32.9003 42.0013 33.082 42.125C33.1917 42.1995 33.3243 42.2431 33.4658 42.2432C33.8442 42.2432 34.1523 41.936 34.1523 41.5576C34.1523 41.5282 34.1506 41.4995 34.1465 41.4717C34.1178 41.2399 33.973 41.0433 33.7715 40.9434C33.679 40.8976 33.5755 40.8711 33.4658 40.8711ZM20.1494 20.1992H19.167V10.1113H19.1113C14.4195 10.1114 10.6025 13.9284 10.6025 18.6211V30.5108C10.6026 35.2025 14.4195 39.0195 19.1113 39.0195H19.167V31.6436H20.1494V40.002H19.1113C13.8692 40.0019 9.61921 35.7529 9.61914 30.5108V18.6211C9.61914 13.3781 13.8692 9.12797 19.1113 9.12794H20.1494V20.1992ZM27.6973 9.12794C32.9395 9.12794 37.1904 13.3781 37.1904 18.6211V30.5108C37.1904 35.7529 32.9394 40.002 27.6973 40.002H26.5645V28.752H27.5479V39.0195H27.6973C32.3891 39.0195 36.207 35.2025 36.207 30.5108V18.6211C36.207 13.9284 32.3891 10.1113 27.6973 10.1113H27.5479V20.1992H26.5645V9.12794H27.6973ZM24.1338 39.2764H23.1514V31.6436H24.1338V39.2764ZM13.5684 30.209C13.5684 32.3464 14.9411 34.1693 16.8516 34.8418V35.874C14.3883 35.1688 12.5859 32.8992 12.5859 30.209V25.5488H13.5684V30.209ZM34.2227 30.209C34.2227 32.8992 32.4205 35.168 29.958 35.874V34.8418C31.8677 34.1685 33.2402 32.3464 33.2402 30.209V26.5322H15.8691V25.5488H34.2227V30.209ZM6.42774 33.6914C6.19925 33.6914 5.99183 33.786 5.84278 33.9375C5.69704 34.0857 5.60547 34.2893 5.60547 34.5137C5.60547 34.9666 5.97485 35.3359 6.42774 35.3359C6.49789 35.3359 6.56559 35.3268 6.63086 35.3106C6.84953 35.254 7.03366 35.1096 7.14258 34.918C7.21055 34.7984 7.25 34.6603 7.25 34.5137C7.25 34.0649 6.88743 33.698 6.43946 33.6914H6.42774ZM40.3408 33.6914C39.8879 33.6914 39.5195 34.0608 39.5195 34.5137C39.5195 34.6684 39.5626 34.8142 39.6387 34.9395C39.7525 35.1269 39.94 35.2662 40.1602 35.3154C40.2183 35.3294 40.2794 35.3359 40.3408 35.3359C40.7945 35.3359 41.1631 34.9665 41.1631 34.5137C41.1631 34.2983 41.0801 34.1009 40.9434 33.9551C40.796 33.7963 40.5872 33.6955 40.3555 33.6914H40.3408ZM24.3779 29.7344H16.8516V32.7959C16.2851 32.6402 15.8692 32.1214 15.8691 31.5049V28.751H24.3779V29.7344ZM30.9404 31.5049C30.9404 32.1214 30.5245 32.6394 29.958 32.7959V28.751H30.9404V31.5049ZM1.34082 30.793C1.18365 30.793 1.03928 30.8462 0.92383 30.9346C0.760893 31.0599 0.655323 31.2575 0.655276 31.4785C0.655276 31.8339 0.927846 32.1285 1.27344 32.1621C1.29555 32.1646 1.31789 32.165 1.34082 32.165C1.54532 32.165 1.72842 32.0749 1.85449 31.9326C1.96178 31.8114 2.02735 31.6521 2.02735 31.4785C2.02728 31.1682 1.8196 30.9066 1.53711 30.8223C1.47492 30.8035 1.40874 30.793 1.34082 30.793ZM45.2607 30.8057C44.944 30.8655 44.7032 31.1445 44.7031 31.4785C44.7031 31.6775 44.7889 31.8571 44.9248 31.9824C45.0468 32.0953 45.2103 32.165 45.3887 32.165C45.4352 32.165 45.4803 32.1603 45.5244 32.1514C45.8381 32.0883 46.0752 31.8102 46.0752 31.4785C46.0752 31.282 45.9919 31.1048 45.8584 30.9795C45.7356 30.8643 45.5703 30.793 45.3887 30.793C45.3453 30.793 45.3017 30.7975 45.2607 30.8057ZM3.57324 23.0186C2.7364 23.0374 2.06078 23.7162 2.06055 24.5645C2.06055 25.4129 2.74792 26.1049 3.59473 26.1123H3.6084C3.82535 26.1123 4.03224 26.0672 4.21973 25.9854C4.76925 25.7487 5.15528 25.2082 5.15528 24.5645C5.1551 23.9209 4.7604 23.3693 4.20117 23.1367C4.01857 23.0598 3.81802 23.0176 3.6084 23.0176C3.59696 23.0176 3.58469 23.0177 3.57324 23.0186ZM43.1865 23.0176C42.9769 23.0176 42.7764 23.0598 42.5938 23.1367C42.0337 23.3693 41.6388 23.9283 41.6387 24.5645C41.6387 25.2008 42.0249 25.7487 42.5752 25.9854C42.7627 26.0672 42.9696 26.1123 43.1865 26.1123H43.2002C44.047 26.1049 44.7334 25.4064 44.7334 24.5645C44.7332 23.7228 44.0585 23.0374 43.2217 23.0186C43.2102 23.0178 43.198 23.0176 43.1865 23.0176ZM16.8516 14.2891C14.9411 14.9615 13.5685 16.7846 13.5684 18.9219V22.3467H29.958V16.335C30.5247 16.4906 30.9404 17.0103 30.9404 17.627V23.3301H12.5859V18.9219C12.5861 16.2319 14.3884 13.9629 16.8516 13.2568V14.2891ZM29.958 13.2568C32.4204 13.9629 34.2225 16.2318 34.2227 18.9219V23.3301H33.2402V18.9219C33.2401 16.7846 31.8677 14.9614 29.958 14.2891V13.2568ZM16.8516 20.2197H15.8691V17.627C15.8691 17.0104 16.285 16.4907 16.8516 16.335V20.2197ZM24.1338 20.1992H23.1514V9.54884H24.1338V20.1992ZM15.9775 8.8489e-06C16.4811 8.8489e-06 16.9209 0.277324 17.1494 0.687509C17.2542 0.874184 17.3151 1.08994 17.3184 1.31837C17.3192 1.32574 17.3193 1.33346 17.3193 1.34083C17.3192 2.08109 16.7178 2.68165 15.9775 2.68165C15.5529 2.6815 15.1742 2.48398 14.9277 2.17481C12.1303 3.3647 9.56259 5.15111 7.36621 7.47267C4.97565 9.99999 3.18395 12.9924 2.06934 16.2568C2.43785 16.496 2.68164 16.9111 2.68164 17.3828C2.6815 18.1147 2.09583 18.7104 1.36719 18.7236C1.35905 18.7245 1.34977 18.7236 1.34082 18.7236C1.13199 18.7236 0.93405 18.677 0.758791 18.5918C0.309329 18.3748 0.000105386 17.915 2.13584e-06 17.3828C2.13584e-06 16.6425 0.600477 16.042 1.34082 16.042C1.3882 16.042 1.43472 16.0448 1.48047 16.0488C2.62619 12.6895 4.46842 9.60998 6.92774 7.00977C9.17413 4.63399 11.7994 2.80296 14.6592 1.58106C14.6445 1.50344 14.6377 1.42252 14.6377 1.34083C14.6377 0.600645 15.2374 0.000269812 15.9775 8.8489e-06ZM30.8232 8.8489e-06C31.5644 8.8489e-06 32.165 0.600484 32.165 1.34083C32.165 1.42431 32.1573 1.5064 32.1426 1.58497C34.9991 2.80687 37.6224 4.63641 39.8672 7.00977C42.3256 9.60905 44.1668 12.6864 45.3125 16.044C45.3379 16.0423 45.3633 16.042 45.3887 16.042C46.1298 16.042 46.7305 16.6425 46.7305 17.3828C46.7304 17.892 46.4468 18.3339 46.0293 18.5615C45.8499 18.659 45.6448 18.7179 45.4277 18.7236C45.4147 18.7244 45.4017 18.7236 45.3887 18.7236C44.6484 18.7236 44.048 18.1239 44.0479 17.3828C44.0479 16.8882 44.316 16.4562 44.7148 16.2236C43.5986 12.9724 41.8111 9.99097 39.4287 7.47267C37.234 5.15274 34.6678 3.36567 31.8721 2.17579C31.6272 2.4845 31.2483 2.68263 30.8232 2.68263C30.083 2.68253 29.4825 2.08105 29.4824 1.34083C29.4824 1.33432 29.4826 1.32684 29.4834 1.32032C29.4859 1.09183 29.5465 0.876186 29.6514 0.689462C29.8807 0.278423 30.3197 7.33771e-05 30.8232 8.8489e-06ZM45.3887 16.6973C45.2118 16.6973 45.0499 16.7653 44.9287 16.875C44.7903 17.0011 44.7031 17.1822 44.7031 17.3828C44.7032 17.7192 44.9464 17.9994 45.2656 18.0576C45.3057 18.065 45.3469 18.0693 45.3887 18.0693C45.5721 18.0693 45.7386 17.9968 45.8623 17.8789C45.9932 17.7537 46.0751 17.5776 46.0752 17.3828C46.0752 17.0528 45.8405 16.7766 45.5293 16.7119C45.4835 16.7021 45.4369 16.6973 45.3887 16.6973ZM1.26856 16.7002C0.924595 16.7362 0.655276 17.029 0.655276 17.3828C0.65536 17.6022 0.75963 17.7986 0.920901 17.9238C1.03634 18.0146 1.18204 18.0684 1.34082 18.0684C1.40792 18.0684 1.47265 18.059 1.53321 18.041C1.81808 17.9583 2.02723 17.6939 2.02735 17.3828C2.02735 17.2067 1.96033 17.0468 1.85059 16.9248C1.72532 16.7849 1.54299 16.6973 1.34082 16.6973C1.31625 16.6973 1.29231 16.6986 1.26856 16.7002ZM6.50879 13.5537C6.05613 13.5539 5.68758 13.9225 5.6875 14.376C5.6875 14.5652 5.7521 14.7377 5.85938 14.877C5.99205 15.0489 6.19226 15.1678 6.41992 15.1924C6.44928 15.1957 6.47863 15.1973 6.50879 15.1973C6.9625 15.1973 7.33106 14.8289 7.33106 14.376C7.33102 14.1926 7.27129 14.0233 7.16895 13.8858C7.03882 13.7114 6.84107 13.5903 6.61524 13.5615C6.58084 13.5566 6.54483 13.5537 6.50879 13.5537ZM40.1826 13.5664C39.9591 13.6041 39.7662 13.733 39.6426 13.9131C39.5525 14.0449 39.5 14.2049 39.5 14.376C39.5 14.8289 39.8694 15.1973 40.3223 15.1973C40.3401 15.1973 40.3591 15.1971 40.377 15.1963C40.6062 15.1807 40.8112 15.0707 40.9512 14.9053C41.0715 14.762 41.1445 14.5774 41.1445 14.376C41.1445 13.9225 40.7757 13.554 40.3223 13.5537C40.2748 13.5537 40.2277 13.5582 40.1826 13.5664ZM13.46 6.55958C13.0817 6.55958 12.7747 6.8668 12.7744 7.24415C12.7744 7.25959 12.7756 7.27462 12.7764 7.29005C12.7919 7.52509 12.9259 7.72847 13.1191 7.83985C13.2199 7.89799 13.3363 7.93067 13.46 7.93067C13.8382 7.93055 14.1465 7.62244 14.1465 7.24415C14.1465 7.237 14.1463 7.22982 14.1455 7.22267C14.1381 6.98518 14.0082 6.77744 13.8174 6.66114C13.7134 6.59648 13.5909 6.55962 13.46 6.55958ZM33.4316 6.55958C33.2811 6.55962 33.1422 6.60781 33.0293 6.69044C32.8574 6.81566 32.7453 7.01665 32.7451 7.24415C32.7451 7.25474 32.7453 7.26579 32.7461 7.27638C32.7625 7.63993 33.064 7.93056 33.4316 7.93067C33.534 7.93067 33.6319 7.9083 33.7188 7.86817C33.9234 7.77318 34.0741 7.58046 34.1094 7.34962C34.1151 7.31604 34.1172 7.28018 34.1172 7.24415C34.117 6.8668 33.809 6.55958 33.4316 6.55958ZM23.3428 3.00977C22.6042 3.00989 21.9852 3.53005 21.832 4.22364C21.8083 4.33083 21.7959 4.4421 21.7959 4.55665C21.7959 4.66475 21.8077 4.7715 21.8281 4.87306C21.9748 5.57554 22.5952 6.10439 23.3428 6.1045C24.0905 6.1045 24.7162 5.57103 24.8604 4.86427C24.88 4.76528 24.8906 4.66217 24.8906 4.55665C24.8906 4.43957 24.8779 4.32457 24.8525 4.21485C24.6968 3.52544 24.0814 3.00977 23.3428 3.00977ZM15.9775 0.655282C15.606 0.65554 15.3028 0.953081 15.293 1.32227C15.2922 1.32862 15.293 1.33444 15.293 1.34083C15.293 1.57484 15.4097 1.78081 15.5889 1.90528C15.6993 1.98136 15.8336 2.02725 15.9775 2.02735C16.2904 2.02735 16.555 1.81692 16.6377 1.53028C16.6556 1.46987 16.664 1.40612 16.6641 1.34083C16.6641 1.16885 16.6009 1.01102 16.4961 0.890634C16.37 0.746496 16.1839 0.655282 15.9775 0.655282ZM30.8232 0.655282C30.6161 0.655334 30.4298 0.746852 30.3037 0.892587C30.2006 1.01295 30.1377 1.16975 30.1377 1.34083C30.1377 1.40793 30.148 1.47183 30.166 1.53321C30.2488 1.81809 30.5122 2.02727 30.8232 2.02735C30.9666 2.02735 31.1002 1.98258 31.21 1.90724C31.3909 1.78359 31.5097 1.57578 31.5098 1.34083V1.3252C31.5016 0.954213 31.1967 0.655282 30.8232 0.655282Z" fill="white"/>
<path d="M104.822 21.2251H107.44V22.4236C108.222 21.5104 109.323 21.0538 110.742 21.0538C111.948 21.0538 112.984 21.4208 113.848 22.1546C114.729 22.8884 115.169 24.0299 115.169 25.5791V32.477H112.527V25.9704C112.527 25.0409 112.266 24.3642 111.745 23.9402C111.239 23.4999 110.644 23.2798 109.959 23.2798C109.29 23.2798 108.703 23.4999 108.198 23.9402C107.692 24.3642 107.44 25.0409 107.44 25.9704V32.477H104.822V21.2251Z" fill="white"/>
<path d="M99.1883 32.4769V21.2249H101.854L101.83 32.4769H99.1883ZM99.0415 17.8249C99.0415 17.3846 99.1883 17.034 99.4818 16.7731C99.7753 16.5122 100.118 16.3817 100.509 16.3817C100.901 16.3817 101.243 16.5122 101.536 16.7731C101.846 17.034 102.001 17.3846 102.001 17.8249C102.001 18.2652 101.854 18.624 101.561 18.9012C101.251 19.1784 100.901 19.317 100.509 19.317C100.118 19.317 99.7753 19.1784 99.4818 18.9012C99.1883 18.624 99.0415 18.2652 99.0415 17.8249Z" fill="white"/>
<path d="M90.1621 21.225H91.6542V17.776H94.296V21.225H96.791V23.2307H94.296V29.0035C94.296 29.5742 94.4346 29.9574 94.7118 30.1531C94.989 30.3325 95.3559 30.4222 95.8125 30.4222H96.6687V32.4769H94.7607C92.6897 32.4769 91.6542 31.4577 91.6542 29.4193V23.2307H90.1621V21.225Z" fill="white"/>
<path d="M83.2221 21.2249V20.0264C83.2221 18.9175 83.5075 18.0695 84.0782 17.4824C84.6653 16.8791 85.5132 16.5774 86.6221 16.5774H88.7991V18.6321H87.4293C86.3857 18.6321 85.8638 19.1539 85.8638 20.1976V21.2249H88.5301V23.2307H85.8638V32.4768H83.2221V23.2307H81.73V21.2249H83.2221Z" fill="white"/>
<path d="M70.5701 22.6682C71.5974 21.5756 72.9509 21.0293 74.6306 21.0293C76.2613 21.0293 77.5658 21.5756 78.5443 22.6682C79.539 23.7607 80.0364 25.155 80.0364 26.8509V27.5848H71.573C71.7034 28.4654 72.054 29.1666 72.6248 29.6884C73.2118 30.1939 73.9212 30.4467 74.7529 30.4467C76.0737 30.4467 77.0522 29.9901 77.6881 29.0769L79.4982 30.3977C79.009 31.1153 78.3486 31.6779 77.5169 32.0855C76.6852 32.4932 75.7639 32.6971 74.7529 32.6971C73.0569 32.6971 71.679 32.1508 70.619 31.0582C69.559 29.9493 69.0291 28.5469 69.0291 26.8509C69.0291 25.155 69.5427 23.7607 70.5701 22.6682ZM71.5974 25.897H77.5903C77.4435 25.0653 77.1092 24.3967 76.5874 23.8912C76.0819 23.3694 75.4296 23.1085 74.6306 23.1085C73.8152 23.1085 73.1384 23.3612 72.6003 23.8667C72.0785 24.356 71.7442 25.0327 71.5974 25.897Z" fill="white"/>
<path d="M56.514 16.5774V23.2062H63.9011V16.5774H66.6162V32.4768H63.9011V25.848H56.514V32.4768H53.7988V16.5774H56.514Z" fill="white"/>
</svg>
